<!DOCTYPE svg PUBLIC "-//W3C//DTD SVG 1.1//EN" "http://www.w3.org/Graphics/SVG/1.1/DTD/svg11.dtd">
<!-- Uploaded to: SVG Repo, www.svgrepo.com, Transformed by: SVG Repo Mixer Tools -->
<svg height="64px" width="64px" version="1.1" id="Layer_1" xmlns="http://www.w3.org/2000/svg" xmlns:xlink="http://www.w3.org/1999/xlink" viewBox="0 0 392.534 392.534" xml:space="preserve" fill="#000000">
<g id="SVGRepo_bgCarrier" stroke-width="0"/>
<g id="SVGRepo_tracerCarrier" stroke-linecap="round" stroke-linejoin="round"/>
<g id="SVGRepo_iconCarrier"> <g> <path style="fill:#FFFFFF;" d="M316.057,49.002h54.691V32.711c0-6.012-4.848-10.925-10.925-10.925H32.711 c-6.012,0-10.925,4.848-10.925,10.925v120.372h46.416l19.329-51.717c3.168-9.18,17.067-9.956,20.622,0.711l28.962,97.875 l21.915-60.444c3.491-9.891,17.455-9.762,20.816,0.905l8.792,33.552l38.4-107.572c3.556-9.244,16.937-10.408,20.816,0.84 l32.323,121.212l5.883-26.828c1.099-5.042,5.56-8.598,10.667-8.598h74.02V114.36h-34.78c-6.012,0-10.925-4.848-10.925-10.925 c0-6.077,4.849-10.925,10.925-10.925h34.78V70.594h-54.691c-6.012,0-10.925-4.848-10.925-10.925S310.045,49.002,316.057,49.002z"/> <path style="fill:#FFFFFF;" d="M359.823,283.152c6.012,0,10.925-4.848,10.925-10.925v-97.358h-65.228l-13.576,62.255 c-2.004,10.279-17.261,12.541-21.204,0.453l-34.844-130.844l-38.335,107.83c-3.943,9.762-17.39,9.632-20.816-0.84l-8.921-33.939 l-21.333,58.699c-3.491,9.632-17.519,9.632-20.687-0.646l-29.22-98.392l-10.602,28.38c-1.616,4.267-5.624,7.111-10.214,7.111 h-53.98v97.358c0,6.012,4.848,10.925,10.925,10.925h327.111V283.152z"/> </g> <path style="fill:#194F82;" d="M359.823,0H32.711C14.675,0,0,14.675,0,32.711v239.515c0,18.036,14.675,32.711,32.711,32.711H136.34 c4.784,5.107,14.545,16.679,19.782,30.901c-28.38,7.887-48.291,24.113-51.329,44.154c-1.034,7.176,4.59,12.606,10.796,12.541 h161.358c7.37,0,11.572-6.271,10.796-12.541c-3.103-20.105-22.949-36.267-51.329-44.154c5.236-14.222,14.998-25.729,19.782-30.901 h103.628c18.036,0,32.711-14.675,32.711-32.711V32.711C392.534,14.675,377.859,0,359.823,0z M258.263,370.747H134.271 c11.442-10.15,34.004-18.295,61.996-18.295S246.82,360.598,258.263,370.747z M164.267,304.937h64 c-5.042,7.37-10.15,16.485-13.446,26.764c-5.947-0.711-12.154-1.099-18.554-1.099c-6.335,0-12.541,0.388-18.554,1.099 C174.416,321.358,169.309,312.242,164.267,304.937z M370.748,272.226c0,6.012-4.848,10.925-10.925,10.925H32.711 c-6.012,0-10.925-4.848-10.925-10.925v-97.358h54.044c4.59,0,8.598-2.844,10.214-7.111l10.602-28.251l29.156,98.392 c3.168,10.279,17.261,10.279,20.687,0.646l21.333-58.699l8.986,33.939c3.426,10.537,16.937,10.602,20.816,0.84l38.335-107.766 l34.844,130.844c4.008,11.96,19.135,9.826,21.204-0.453l13.576-62.255h65.228v97.422h-0.065V272.226z M370.748,49.002h-54.691 c-6.012,0-10.925,4.848-10.925,10.925s4.848,10.925,10.925,10.925h54.691v21.786h-34.78c-6.012,0-10.925,4.848-10.925,10.925 c0,6.077,4.849,10.925,10.925,10.925h34.78v38.659h-74.02c-5.107,0-9.568,3.556-10.667,8.598l-5.883,26.828L247.855,67.491 c-3.879-11.313-17.261-10.149-20.816-0.84l-38.271,107.636l-8.792-33.552c-3.297-10.667-17.325-10.796-20.816-0.905l-21.915,60.444 l-28.897-98.133c-3.556-10.667-17.455-9.891-20.622-0.711l-19.329,51.717h-46.61V32.711c0-6.012,4.848-10.925,10.925-10.925h327.111 c6.012,0,10.925,4.848,10.925,10.925V49.002L370.748,49.002z"/> <g> <path style="fill:#FFC10D;" d="M258.263,370.747c-11.442-10.15-34.004-18.295-61.996-18.295s-50.554,8.21-61.996,18.295H258.263z"/> <path style="fill:#FFC10D;" d="M177.713,331.636c5.947-0.711,12.154-1.099,18.554-1.099c6.335,0,12.541,0.388,18.554,1.099 c3.297-10.279,8.404-19.394,13.446-26.764h-64C169.309,312.242,174.416,321.358,177.713,331.636z"/> </g> <g> <path style="fill:#56ACE0;" d="M316.057,49.002h31.224c-1.939-3.232-5.301-5.43-9.374-5.43H54.368 c-6.012,0-10.925,4.848-10.925,10.925v98.586h24.76l19.329-51.717c3.168-9.18,17.067-9.956,20.622,0.711l28.962,97.875 l21.915-60.444c3.491-9.891,17.455-9.762,20.816,0.905l8.792,33.552l38.4-107.572c3.556-9.244,16.937-10.408,20.816,0.84 l32.323,121.212l5.883-26.828c1.099-5.042,5.56-8.598,10.667-8.598h52.17V114.36h-12.8c-6.012,0-10.925-4.848-10.925-10.925 c0-6.077,4.848-10.925,10.925-10.925h12.8V70.594h-32.84c-6.012,0-10.925-4.848-10.925-10.925S310.045,49.002,316.057,49.002z"/> <path style="fill:#56ACE0;" d="M54.368,261.301h283.539c6.012,0,10.925-4.849,10.925-10.925v-75.507h-43.378l-13.576,62.255 c-2.004,10.279-17.261,12.541-21.204,0.453l-34.844-130.844l-38.335,107.766c-3.943,9.762-17.39,9.632-20.816-0.84l-8.986-33.939 l-21.333,58.699c-3.491,9.632-17.519,9.632-20.687-0.646l-29.156-98.392L85.98,167.822c-1.616,4.267-5.624,7.111-10.214,7.111 H43.443v75.572C43.507,256.453,48.356,261.301,54.368,261.301z"/> </g> </g>
</svg>