<!DOCTYPE svg PUBLIC "-//W3C//DTD SVG 1.1//EN" "http://www.w3.org/Graphics/SVG/1.1/DTD/svg11.dtd">
<!-- Uploaded to: SVG Repo, www.svgrepo.com, Transformed by: SVG Repo Mixer Tools -->
<svg fill="#000000" version="1.1" id="Capa_1" xmlns="http://www.w3.org/2000/svg" xmlns:xlink="http://www.w3.org/1999/xlink" width="64px" height="64px" viewBox="0 0 85.541 85.541" xml:space="preserve">
<g id="SVGRepo_bgCarrier" stroke-width="0"/>
<g id="SVGRepo_tracerCarrier" stroke-linecap="round" stroke-linejoin="round"/>
<g id="SVGRepo_iconCarrier"> <g> <path d="M72.366,8.586c-9.381-5.192-21.793-3.614-29.587,3.594C34.971,4.978,22.57,3.394,13.193,8.586 C5.054,13.063,0,21.616,0,30.902c0,2.687,0.428,5.343,1.191,7.589c1.75,7.879,9.108,16.391,17.05,23.625L5.875,73.95 c-1.208,1.153-1.253,3.08-0.094,4.279c0.591,0.627,1.392,0.935,2.184,0.935c0.757,0,1.507-0.284,2.096-0.846l12.764-12.224 c9.061,7.566,17.632,12.998,18.344,13.459c0.49,0.308,1.049,0.455,1.61,0.455c0.564,0,1.12-0.147,1.61-0.455 c1.464-0.922,35.891-22.721,39.875-40.772c0.851-2.547,1.276-5.192,1.276-7.879C85.552,21.622,80.493,13.069,72.366,8.586z M78.454,37.174c-2.767,12.495-25.328,29.459-35.669,36.221c-3.975-2.606-9.761-6.715-15.536-11.514l5.488-5.261 c2.914,2.099,6.375,3.269,10.036,3.269c4.599,0,8.929-1.785,12.18-5.03c3.257-3.245,5.06-7.554,5.06-12.141 c0-4.596-1.803-8.91-5.06-12.149c-6.502-6.476-17.857-6.458-24.344,0.023c-3.263,3.239-5.057,7.554-5.057,12.15 c0,3.469,1.031,6.768,2.938,9.576l-5.828,5.585C15.137,51.088,8.491,43.439,7.028,36.875c-0.645-1.918-0.97-3.928-0.97-5.967 c0-7.069,3.854-13.589,10.066-17.014c2.849-1.593,6.088-2.415,9.356-2.415c5.799,0,11.257,2.565,14.981,7.04 c0.574,0.683,1.427,1.093,2.329,1.093l0,0c0.895,0,1.755-0.393,2.332-1.093c5.787-6.999,16.391-9.02,24.306-4.625 c6.218,3.419,10.071,9.951,10.071,17.02C79.5,32.936,79.186,34.945,78.454,37.174z M31.599,42.735c0-2.967,1.165-5.757,3.275-7.87 c2.113-2.104,4.927-3.26,7.917-3.26c2.985,0,5.784,1.141,7.894,3.248c2.104,2.102,3.274,4.892,3.274,7.858 c0,2.962-1.171,5.751-3.274,7.855c-4.232,4.202-11.597,4.202-15.823,0.006C32.763,48.48,31.599,45.697,31.599,42.735z"/> </g> </g>
</svg>